<svg xmlns="http://www.w3.org/2000/svg" width="30" height="30" viewBox="0 0 30 30"><defs><style>.a{opacity:0.6;}.b{fill:#bb1616;}</style></defs><g class="a"><path class="b" d="M15,0A15,15,0,1,0,30,15,15.017,15.017,0,0,0,15,0Zm0,27.429A12.429,12.429,0,1,1,27.429,15,12.443,12.443,0,0,1,15,27.429Z"/><path class="b" d="M63.672,51.618a1.335,1.335,0,0,0-1.889,0l-4.141,4.142L53.5,51.618a1.336,1.336,0,0,0-1.889,1.889l4.141,4.141-4.141,4.142A1.336,1.336,0,1,0,53.5,63.678l4.141-4.141,4.141,4.141a1.336,1.336,0,1,0,1.889-1.889l-4.141-4.141,4.141-4.141A1.335,1.335,0,0,0,63.672,51.618Z" transform="translate(-42.643 -42.647)"/></g></svg>