<svg xmlns="http://www.w3.org/2000/svg" width="30" height="30" viewBox="0 0 30 30"><defs><style>.a{opacity:0.59;}.b{fill:#020275;}</style></defs><g class="a"><path class="b" d="M27.649,55.041a.748.748,0,0,0-.746.749v6.652a2.245,2.245,0,0,1-2.238,2.248H3.73a2.245,2.245,0,0,1-2.238-2.248V42.918A2.246,2.246,0,0,1,3.73,40.671h6.624a.749.749,0,0,0,0-1.5H3.73A3.742,3.742,0,0,0,0,42.918V62.443a3.742,3.742,0,0,0,3.73,3.746H24.665a3.742,3.742,0,0,0,3.73-3.746V55.79a.748.748,0,0,0-.746-.749Zm0,0" transform="translate(0 -36.189)"/><path class="b" d="M128.771,1.271a3.45,3.45,0,0,0-4.879,0L110.214,14.95a.766.766,0,0,0-.2.338l-1.8,6.494a.767.767,0,0,0,.943.944l6.494-1.8a.766.766,0,0,0,.338-.2L129.671,7.05a3.454,3.454,0,0,0,0-4.879ZM111.884,15.448,123.079,4.253l3.61,3.61-11.195,11.2Zm-.721,1.447,2.884,2.885-3.99,1.105ZM128.587,5.966l-.813.813-3.611-3.611.813-.813a1.917,1.917,0,0,1,2.71,0l.9.9A1.919,1.919,0,0,1,128.587,5.966Zm0,0" transform="translate(-100.68 -0.261)"/></g></svg>