<svg xmlns="http://www.w3.org/2000/svg" width="30" height="30" viewBox="0 0 30 30"><defs><style>.a{opacity:0.6;}</style></defs><g class="a" transform="translate(30 30) rotate(180)"><g transform="translate(0 0)"><path d="M21.127,15.824l-5.3,5.3A.937.937,0,0,1,14.5,19.8l3.863-3.864H8.438a.938.938,0,0,1,0-1.875h9.924L14.5,10.2a.937.937,0,0,1,1.326-1.326l5.3,5.3a.922.922,0,0,1,.244.824A.925.925,0,0,1,21.127,15.824ZM15,30A15,15,0,1,1,30,15,15,15,0,0,1,15,30ZM15,1.875A13.125,13.125,0,1,0,28.125,15,13.125,13.125,0,0,0,15,1.875Z"/></g></g></svg>